Coordinates
version=1
nRows=21
nColumns=22
inDegrees=yes

Units are S.I. units (second, meters, Newtons, ...)
If the header above contains a line with 'inDegrees', this indicates whether rotational values are in degrees (yes) or radians (no).

endheader
time	pelvis_tilt	pelvis_list	pelvis_rotation	pelvis_tx	pelvis_ty	pelvis_tz	hip_flexion_r	hip_adduction_r	hip_rotation_r	knee_angle_r	ankle_angle_r	subtalar_angle_r	hip_flexion_l	hip_adduction_l	hip_rotation_l	knee_angle_l	ankle_angle_l	subtalar_angle_l	lumbar_extension	lumbar_bending	lumbar_rotation
      0.74000000	    -13.57246230	      3.95210142	    -32.07559254	     -1.29704789	      0.84691318	     -0.52772743	     26.78345803	     -3.64666735	      5.74357903	    -48.28747097	     15.03613332	      9.95346065	      3.19764033	     -3.49152514	     -4.26537914	    -14.25612664	     29.88200827	     -2.07538902	      0.16060401	      1.49730438	     11.44771802
      0.75000000	    -13.61701455	      3.85645918	    -31.88934714	     -1.29221977	      0.84550988	     -0.52542551	     28.57107733	     -3.36985370	      5.94778303	    -51.65939033	     14.10069073	     10.35772699	      2.58332981	     -3.58735508	     -4.30841037	    -13.81348682	     30.03218589	     -1.75918812	     -0.34167488	      1.40921041	     10.81340629
      0.76000000	    -13.66329272	      3.73213059	    -31.64739949	     -1.28718869	      0.84406389	     -0.52294992	     30.32060001	     -3.10089957	      6.01161001	    -54.81778849	     13.41290458	     10.70438763	      1.93190922	     -3.71668979	     -4.29470402	    -13.34544477	     30.16534708	     -1.42794781	     -0.86439839	      1.34370315	     10.12518527
      0.77000000	    -13.70168249	      3.57852855	    -31.34632181	     -1.28194798	      0.84261547	     -0.52032861	     32.01575269	     -2.86553949	      5.92042440	    -57.72047952	     12.99611542	     10.85690013	      1.23394441	     -3.87310507	     -4.20930363	    -12.84472424	     30.22581974	     -1.16335519	     -1.42050061	      1.29690542	      9.37526345
      0.78000000	    -13.77393783	      3.41633922	    -30.99324134	     -1.27653794	      0.84107625	     -0.51759713	     33.71938904	     -2.67882485	      5.66944117	    -60.36311518	     12.88070454	     10.88870494	      0.55889101	     -4.06425883	     -4.05960261	    -12.34853422	     30.32028642	     -0.88277413	     -1.95965378	      1.27941933	      8.61332812
      0.79000000	    -13.86800850	      3.24622709	    -30.59195238	     -1.27095290	      0.83949696	     -0.51479243	     35.41921339	     -2.56240913	      5.26879240	    -62.72627401	     12.98540837	     10.72877308	     -0.10433702	     -4.28040108	     -3.84473497	    -11.85037776	     30.38283468	     -0.61443777	     -2.49793505	      1.29081605	      7.82410495
      0.80000000	    -14.01166909	      3.07563711	    -30.16723150	     -1.26526382	      0.83784277	     -0.51188985	     37.15780441	     -2.49984807	      4.73843718	    -64.81443059	     13.23424404	     10.12287150	     -0.71341389	     -4.53619006	     -3.60709835	    -11.37864728	     30.45393399	     -0.28628180	     -3.00852545	      1.33718009	      7.05040578
      0.81000000	    -14.15008474	      2.87909403	    -29.69223633	     -1.25937760	      0.83622019	     -0.50895259	     38.85355498	     -2.53354770	      4.07086867	    -66.61863672	     13.56796346	      9.37271055	     -1.34583056	     -4.81976767	     -3.28015672	    -10.90426999	     30.47944509	     -0.05042726	     -3.55978318	      1.42163061	      6.25036652
      0.82000000	    -14.31066368	      2.65192521	    -29.19288258	     -1.25335179	      0.83459691	     -0.50593203	     40.53084098	     -2.62133182	      3.29981000	    -68.14608401	     13.94790693	      8.45458838	     -1.97013276	     -5.15690342	     -2.91112188	    -10.44906006	     30.49769922	      0.17913975	     -4.12740104	      1.56303318	      5.46846772
      0.83000000	    -14.49400160	      2.38508506	    -28.67308972	     -1.24719844	      0.83297616	     -0.50280873	     42.17938272	     -2.74261595	      2.44914113	    -69.40577813	     14.34277342	      7.43323815	     -2.58274612	     -5.55991805	     -2.51619685	    -10.02729027	     30.51953648	      0.41552141	     -4.71520521	      1.77239339	      4.71251651
      0.84000000	    -14.70055992	      2.06784078	    -28.13932723	     -1.24092467	      0.83137002	     -0.49954211	     43.78354840	     -2.87069639	      1.53753223	    -70.40300896	     14.74002141	      6.36141307	     -3.18617285	     -6.04264992	     -2.11185056	     -9.64483532	     30.53875172	      0.66727269	     -5.32517509	      2.05926839	      3.99030215
      0.85000000	    -14.93180827	      1.69817261	    -27.59135765	     -1.23452654	      0.82976767	     -0.49612257	     45.33606459	     -2.99165122	      0.58038925	    -71.15119087	     15.11879785	      5.32564866	     -3.77105844	     -6.60839069	     -1.70361294	     -9.31590814	     30.56837332	      0.93359781	     -5.95239805	      2.43032493	      3.30720233
      0.86000000	    -15.18826074	      1.27661258	    -27.02778397	     -1.22799502	      0.82816895	     -0.49252210	     46.82678609	     -3.09337114	     -0.41012003	    -71.66224198	     15.46943546	      4.39914670	     -4.32812470	     -7.25916873	     -1.29285231	     -9.05516150	     30.60587139	      1.21279942	     -6.58958136	      2.88375033	      2.66160000
      0.87000000	    -15.47235266	      0.81059997	    -26.45156807	     -1.22130277	      0.82656574	     -0.48871666	     48.25138534	     -3.16837670	     -1.41947702	    -71.95229032	     15.79025160	      3.61874429	     -4.84799785	     -7.98896060	     -0.88660721	     -8.86867333	     30.63593158	      1.51048340	     -7.22027186	      3.41651423	      2.05330501
      0.88000000	    -15.78378904	      0.31173527	    -25.86692422	     -1.21440877	      0.82495003	     -0.48468404	     49.60392908	     -3.21701705	     -2.43620774	    -72.03866245	     16.07416853	      3.01234896	     -5.32210196	     -8.78457518	     -0.49680431	     -8.76424840	     30.64231843	      1.83503623	     -7.82842807	      4.01690353	      1.48477414
      0.89000000	    -16.11925314	     -0.19822404	    -25.26071080	     -1.20725359	      0.82331216	     -0.48044671	     50.88408652	     -3.26509593	     -3.44797131	    -71.95273197	     16.30507496	      2.74824220	     -5.73745822	     -9.61942598	     -0.10096611	     -8.74671747	     30.63374211	      2.08448202	     -8.39575446	      4.66892530	      0.92355191
      0.90000000	    -16.49067596	     -0.74389906	    -24.70878324	     -1.19979447	      0.82167401	     -0.47582790	     52.06759424	     -3.22690013	     -4.45705909	    -71.69195905	     16.53975023	      2.39653266	     -6.13752096	    -10.52228537	      0.19370184	     -8.78363666	     30.55420441	      2.56336682	     -8.91002392	      5.39084364	      0.49903449
      0.91000000	    -16.88137069	     -1.27339916	    -24.16357402	     -1.19195965	      0.82003080	     -0.47095580	     53.16111920	     -3.19036347	     -5.44908776	    -71.30731671	     16.72883349	      2.34195986	     -6.49287827	    -11.42680960	      0.46674041	     -8.89049308	     30.41166822	      2.96221102	     -9.35514696	      6.13853288	      0.10035250
      0.92000000	    -17.29479994	     -1.76176006	    -23.64602259	     -1.18370656	      0.81839339	     -0.46580195	     54.16781524	     -3.16290743	     -6.42645913	    -70.82726885	     16.86864264	      2.42025598	     -6.81586438	    -12.30306727	      0.75846375	     -9.03630270	     30.17367359	      3.22282756	     -9.70811140	      6.88551188	     -0.23182664
      0.93000000	    -17.70527872	     -2.25833652	    -23.22285171	     -1.17498900	      0.81686660	     -0.46021410	     55.00817879	     -3.03969872	     -7.37348707	    -70.25316281	     17.00998744	      2.56872210	     -7.17238951	    -13.19168161	      0.85743950	     -9.23716215	     29.79441785	      3.86695931	    -10.01894735	      7.66272858	     -0.44895299
      0.94000000	    -18.13405918	     -2.68344355	    -22.82176603	     -1.16580699	      0.81539273	     -0.45438274	     55.74342757	     -2.95310010	     -8.32926057	    -69.64861896	     17.08673968	      2.75620724	     -7.47117139	    -14.01339255	      1.01177523	     -9.51098617	     29.28095765	      4.22058045	    -10.22296692	      8.41103581	     -0.63013382
